<?xml version="1.0" encoding="UTF-8" standalone="no"?>
<!-- Created with Inkscape (http://www.inkscape.org/) -->

<svg
   xmlns:dc="http://purl.org/dc/elements/1.1/"
   xmlns:cc="http://creativecommons.org/ns#"
   xmlns:rdf="http://www.w3.org/1999/02/22-rdf-syntax-ns#"
   xmlns:svg="http://www.w3.org/2000/svg"
   xmlns="http://www.w3.org/2000/svg"
   xmlns:xlink="http://www.w3.org/1999/xlink"
   xmlns:sodipodi="http://sodipodi.sourceforge.net/DTD/sodipodi-0.dtd"
   xmlns:inkscape="http://www.inkscape.org/namespaces/inkscape"
   width="65.725319mm"
   height="58.639374mm"
   viewBox="0 0 232.88499 207.77731"
   id="svg18671"
   version="1.1"
   inkscape:version="0.91 r13725"
   sodipodi:docname="new-measure-logo.svg">
  <defs
     id="defs18673">
    <radialGradient
       cx="25.02"
       cy="44.299999"
       r="16.726999"
       id="L-0-7"
       xlink:href="#I"
       gradientUnits="userSpaceOnUse"
       gradientTransform="matrix(9.2108852,0,0,1.5487329,-2151.2376,-2238.6781)" />
    <linearGradient
       id="I">
      <stop
         id="b"
         stop-color="#2e3436" />
      <stop
         id="c"
         offset="1"
         stop-color="#2e3436"
         stop-opacity="0" />
    </linearGradient>
    <radialGradient
       cx="14.11"
       cy="9.4209995"
       r="18.716999"
       id="N-9-7"
       xlink:href="#G"
       gradientUnits="userSpaceOnUse"
       gradientTransform="matrix(-2.2369428,9.0439179,-18.182303,-4.4972505,-1793.6598,-2598.6985)" />
    <linearGradient
       id="G">
      <stop
         id="X"
         stop-color="#888a85" />
      <stop
         id="Y"
         offset="1"
         stop-color="#555753" />
    </linearGradient>
    <linearGradient
       gradientTransform="matrix(9.2108852,0,0,9.2108852,-2141.8724,-2571.5495)"
       y1="5.2649999"
       x2="0"
       y2="42.603001"
       id="M-8-4"
       xlink:href="#linearGradient3919"
       gradientUnits="userSpaceOnUse" />
    <linearGradient
       id="linearGradient3919"
       inkscape:collect="always">
      <stop
         id="stop3921"
         style="stop-color:#ffffff"
         offset="0" />
      <stop
         id="stop3923"
         style="stop-color:#ffffff;stop-opacity:0"
         offset="1" />
    </linearGradient>
    <linearGradient
       gradientTransform="matrix(9.2108852,0,0,9.2108852,-2141.8724,-2571.5495)"
       y1="8.1639996"
       x2="0"
       y2="39.695"
       id="Q-7-8"
       xlink:href="#D"
       gradientUnits="userSpaceOnUse" />
    <linearGradient
       id="D">
      <stop
         id="R"
         stop-color="#2e3436" />
      <stop
         id="S"
         offset="1"
         stop-color="#babdb6" />
    </linearGradient>
    <radialGradient
       cx="26.805"
       cy="30.17"
       r="14.476"
       id="O-8-7"
       xlink:href="#F"
       gradientUnits="userSpaceOnUse"
       gradientTransform="matrix(10.979877,-15.396673,22.322,15.918555,-2874.5775,-2346.3549)" />
    <linearGradient
       id="F">
      <stop
         id="V"
         stop-color="#d3d7cf" />
      <stop
         id="W"
         offset="1"
         stop-color="#eeeeec" />
    </linearGradient>
    <linearGradient
       gradientTransform="matrix(9.2108852,0,0,9.2108852,-2141.8724,-2571.5495)"
       x1="9.5830002"
       y1="-12.469"
       x2="26.52"
       y2="34.548"
       id="P-2-2"
       xlink:href="#linearGradient3919"
       gradientUnits="userSpaceOnUse" />
  </defs>
  <sodipodi:namedview
     id="base"
     pagecolor="#ffffff"
     bordercolor="#666666"
     borderopacity="1.0"
     inkscape:pageopacity="0.0"
     inkscape:pageshadow="2"
     inkscape:zoom="0.35"
     inkscape:cx="-406.991"
     inkscape:cy="-248.8409"
     inkscape:document-units="px"
     inkscape:current-layer="layer1"
     showgrid="false"
     fit-margin-top="0"
     fit-margin-left="0"
     fit-margin-right="0"
     fit-margin-bottom="0"
     inkscape:window-width="1920"
     inkscape:window-height="998"
     inkscape:window-x="0"
     inkscape:window-y="25"
     inkscape:window-maximized="1" />
  <metadata
     id="metadata18676">
    <rdf:RDF>
      <cc:Work
         rdf:about="">
        <dc:format>image/svg+xml</dc:format>
        <dc:type
           rdf:resource="http://purl.org/dc/dcmitype/StillImage" />
        <dc:title></dc:title>
      </cc:Work>
    </rdf:RDF>
  </metadata>
  <g
     inkscape:label="Layer 1"
     inkscape:groupmode="layer"
     id="layer1"
     transform="translate(-43.419576,-75.743996)">
    <g
       transform="matrix(0.44393777,0,0,0.44393777,1013.1438,1235.3969)"
       id="g19543">
      <path
         inkscape:connector-curvature="0"
         id="path43696-4"
         style="font-style:normal;font-variant:normal;font-weight:bold;font-stretch:normal;font-size:120.19831085px;line-height:125%;font-family:Waree;-inkscape-font-specification:'Waree Bold';letter-spacing:0px;word-spacing:0px;fill:#000000;fill-opacity:1;stroke:#2e3436;stroke-width:6.06046009;stroke-linecap:butt;stroke-linejoin:miter;stroke-miterlimit:4;stroke-dasharray:none;stroke-opacity:1"
         d="m -2180.6117,-2381.5022 6.9778,-23.9006 43.8145,-5.2061 -34.1026,-28.0598 6.9636,-23.8519 72.8239,21.2609 -5.1835,17.7548 -53.2644,-15.5505 34.3667,28.2427 -3.4746,11.9017 -44.1641,5.3157 53.2644,15.5504 -5.1978,17.8037 -72.8239,-21.261 z" />
      <path
         inkscape:connector-curvature="0"
         id="path43698-9"
         style="font-style:normal;font-variant:normal;font-weight:bold;font-stretch:normal;font-size:120.19831085px;line-height:125%;font-family:Waree;-inkscape-font-specification:'Waree Bold';letter-spacing:0px;word-spacing:0px;fill:#000000;fill-opacity:1;stroke:#2e3436;stroke-width:6.06046009;stroke-linecap:butt;stroke-linejoin:miter;stroke-miterlimit:4;stroke-dasharray:none;stroke-opacity:1"
         d="m -2125.3798,-2509.428 36.5134,-38.1322 10.68,10.2266 -22.9835,24.0024 10.2029,9.7697 21.6128,-22.5711 10.68,10.2266 -21.6129,22.571 12.5517,12.0189 23.7566,-24.8098 10.6799,10.2266 -37.2866,38.9396 -54.7943,-52.4683 z" />
      <path
         inkscape:connector-curvature="0"
         id="path43700-9"
         style="font-style:normal;font-variant:normal;font-weight:bold;font-stretch:normal;font-size:120.19831085px;line-height:125%;font-family:Waree;-inkscape-font-specification:'Waree Bold';letter-spacing:0px;word-spacing:0px;fill:#000000;fill-opacity:1;stroke:#2e3436;stroke-width:6.06046009;stroke-linecap:butt;stroke-linejoin:miter;stroke-miterlimit:4;stroke-dasharray:none;stroke-opacity:1"
         d="m -1981.5569,-2536.8778 -28.2738,11.6752 0.8133,14.6173 -18.176,7.5054 -2.9827,-80.8457 21.5576,-8.9019 54.9276,59.3961 -18.176,7.5054 -9.69,-10.9518 z m -29.1372,-3.1963 19.2093,-7.9322 -21.1012,-23.9417 1.8919,31.8739 z" />
      <path
         inkscape:connector-curvature="0"
         id="path43702-1"
         style="font-style:normal;font-variant:normal;font-weight:bold;font-stretch:normal;font-size:120.19831085px;line-height:125%;font-family:Waree;-inkscape-font-specification:'Waree Bold';letter-spacing:0px;word-spacing:0px;fill:#000000;fill-opacity:1;stroke:#2e3436;stroke-width:6.06046009;stroke-linecap:butt;stroke-linejoin:miter;stroke-miterlimit:4;stroke-dasharray:none;stroke-opacity:1"
         d="m -1913.5215,-2609.1319 q 12.5941,0.4371 26.3781,4.6779 l -0.557,16.0473 q -12.3984,-6.0739 -23.2151,-6.4493 -7.4143,-0.2574 -10.635,1.7154 -3.2191,1.9221 -3.3512,5.7307 -0.1111,3.1994 2.2683,4.9598 2.3812,1.7096 7.9267,3.0715 l 8.2702,1.9649 q 12.1032,2.8605 17.4605,8.1817 5.4098,5.2721 5.0697,15.0731 -0.4512,13.0004 -8.3746,18.6233 -7.9234,5.6228 -22.6503,5.1117 -14.3715,-0.4988 -28.8083,-6.4401 l 0.5728,-16.5043 q 14.4573,8.2808 26.8482,8.7109 4.0119,0.1392 6.7806,-0.5273 2.8212,-0.7157 4.1874,-1.9902 1.3679,-1.3253 1.9198,-2.5772 0.5519,-1.252 0.6012,-2.6738 0.1322,-3.8088 -2.4433,-5.7794 -2.5247,-1.9688 -8.7741,-3.5585 l -7.5085,-1.9384 q -10.6866,-2.6588 -16.0929,-8.0325 -5.3555,-5.372 -5.0259,-14.8683 0.4071,-11.7308 8.1274,-17.3608 7.7203,-5.6299 21.0253,-5.1681 z" />
      <path
         inkscape:connector-curvature="0"
         id="path43704-6"
         style="font-style:normal;font-variant:normal;font-weight:bold;font-stretch:normal;font-size:120.19831085px;line-height:125%;font-family:Waree;-inkscape-font-specification:'Waree Bold';letter-spacing:0px;word-spacing:0px;fill:#000000;fill-opacity:1;stroke:#2e3436;stroke-width:6.06046009;stroke-linecap:butt;stroke-linejoin:miter;stroke-miterlimit:4;stroke-dasharray:none;stroke-opacity:1"
         d="m -1838.6269,-2510.7773 q -14.6124,-7.4734 -18.2876,-18.1423 -3.652,-10.7142 3.7058,-25.1003 l 20.7081,-40.4895 17.4173,8.9079 -20.7082,40.4895 q -4.0722,7.9621 -3.3918,13.1043 0.6803,5.1421 7.1043,8.4276 6.605,3.3781 11.1283,0.7832 4.5685,-2.5718 8.5481,-10.353 l 20.7082,-40.4895 17.4172,8.908 -20.7081,40.4894 q -7.3809,14.4316 -18.1824,17.6964 -10.8015,3.265 -25.4592,-4.2317 z" />
      <path
         inkscape:connector-curvature="0"
         id="path43706-3"
         style="font-style:normal;font-variant:normal;font-weight:bold;font-stretch:normal;font-size:120.19831085px;line-height:125%;font-family:Waree;-inkscape-font-specification:'Waree Bold';letter-spacing:0px;word-spacing:0px;fill:#000000;fill-opacity:1;stroke:#2e3436;stroke-width:6.06046009;stroke-linecap:butt;stroke-linejoin:miter;stroke-miterlimit:4;stroke-dasharray:none;stroke-opacity:1"
         d="m -1728.5914,-2483.9611 q 4.2552,-3.2185 4.2715,-6.7349 0.057,-3.547 -3.499,-8.248 l -4.9657,-6.5653 -15.5216,11.7399 4.9657,6.5653 q 3.8315,5.0658 7.2689,5.6514 3.468,0.6262 7.4802,-2.4084 z m 14.1112,13.8555 q -11.8742,8.9812 -24.3189,0.1088 1.8562,4.1389 0.9297,8.7261 -0.8958,4.6276 -3.8191,10.5338 l -10.7768,21.4668 -12.5675,-16.6159 9.4565,-18.7479 q 2.692,-5.2854 2.728,-8.9441 0.1071,-3.6488 -2.8968,-7.6204 l -3.3412,-4.4174 -22.8974,17.3187 -11.8013,-15.6027 60.506,-45.7643 18.0237,23.8296 q 4.9351,6.5248 7.2236,11.9931 2.2885,5.4685 1.9807,9.7787 -0.3077,4.3102 -2.4385,7.6421 -2.0596,3.3417 -5.9907,6.315 z" />
      <path
         inkscape:connector-curvature="0"
         id="path43708-7"
         style="font-style:normal;font-variant:normal;font-weight:bold;font-stretch:normal;font-size:120.19831085px;line-height:125%;font-family:Waree;-inkscape-font-specification:'Waree Bold';letter-spacing:0px;word-spacing:0px;fill:#000000;fill-opacity:1;stroke:#2e3436;stroke-width:6.06046009;stroke-linecap:butt;stroke-linejoin:miter;stroke-miterlimit:4;stroke-dasharray:none;stroke-opacity:1"
         d="m -1675.5531,-2434.42 12.1274,51.383 -14.3912,3.3966 -7.6336,-32.3431 -13.7483,3.2448 7.1784,30.4145 -14.3912,3.3967 -7.1785,-30.4145 -16.9134,3.9919 7.8905,33.4311 -14.3912,3.3967 -12.3843,-52.4711 73.8354,-17.4266 z" />
      <path
         style="opacity:0.6;fill:url(#L-0-7)"
         id="1-4-9"
         d="m -1766.739,-2170.0704 a 154.07215,25.905936 0 0 1 -308.1443,0 154.07215,25.905936 0 1 1 308.1443,0 z"
         inkscape:connector-curvature="0" />
      <path
         id="path19031-4"
         d="m -1736.5935,-2350.4883 a 184.21771,184.1988 0 0 1 -368.4354,0 184.21771,184.1988 0 1 1 368.4354,0 z"
         inkscape:connector-curvature="0"
         style="fill:#2e3436" />
      <path
         style="fill:url(#N-9-7)"
         id="3-0-2"
         d="m -1932.3248,-2522.041 c -130.1928,2.3184 -209.5299,171.1176 -127.2253,273.4481 l -0.2879,0.2878 c 74.72,110.3949 261.9433,83.083 300.793,-44.6152 l 0.2878,0 c 0.07,-0.1805 -0.069,-0.3951 0,-0.5756 42.9656,-112.4715 -52.8225,-239.057 -172.9919,-228.5451 -0.1979,0.018 -0.3776,-0.018 -0.5757,0 z"
         inkscape:connector-curvature="0" />
      <path
         style="fill:none;stroke:url(#M-8-4);stroke-width:9.210886"
         id="4-9-9"
         d="m -1910.1611,-2518.2991 c -7.0322,-0.3443 -14.351,-0.071 -21.588,0.5757 -0.096,0.01 -0.1915,-0.01 -0.2878,0 -126.789,2.0196 -204.7239,167.3978 -124.0591,266.8278 72.6857,107.3894 255.7856,80.9302 293.3091,-43.4639 0.027,-0.087 -0.027,-0.1999 0,-0.2878 39.4822,-102.7954 -40.5766,-218.4223 -147.3742,-223.6518 z"
         inkscape:connector-curvature="0" />
      <path
         style="fill:url(#Q-7-8)"
         id="5-8-9"
         d="m -1931.7491,-2495.8476 c -107.6458,1.9169 -175.6337,145.9675 -107.3644,230.8478 a 26.320588,26.320588 0 0 1 2.3027,3.4541 c 62.8993,89.9832 220.6086,66.4154 252.7237,-39.1462 a 26.320588,26.320588 0 0 1 0.8635,-2.3027 c 35.963,-94.1408 -45.5348,-201.6607 -146.2228,-192.853 -4.6769,0.4092 -4.9077,0.3951 -0.5757,0 a 26.320588,26.320588 0 0 1 -1.727,0 z"
         inkscape:connector-curvature="0" />
      <path
         style="fill:url(#O-8-7)"
         id="6-7-5"
         d="m -1931.4613,-2483.1826 c -0.2018,0.018 -0.4175,0.2762 -0.5756,0.2878 -0.1355,0.01 -0.6767,-0.014 -0.8636,0 -0.1936,0.01 -0.3821,-0.01 -0.5756,0 -95.3304,3.5748 -156.7623,134.3912 -95.8508,210.1234 1.0072,1.2792 2.0397,2.6351 2.8784,4.0297 56.6504,81.0436 201.3436,59.3953 230.2721,-35.6921 0.3347,-1.0378 0.7307,-2.1605 1.1514,-3.1663 32.562,-85.2381 -42.0242,-183.5643 -133.27,-175.5825 -0.5923,0.052 -0.983,-0.039 -1.4392,0 -0.638,0.022 -1.0889,0.01 -1.7271,0 z"
         inkscape:connector-curvature="0" />
      <path
         id="7-3-3"
         d="m -1919.6598,-2483.4704 c -2.8162,0.045 -5.7838,0.039 -8.6352,0.2878 -0.5923,0.052 -0.983,-0.039 -1.4392,0 -0.638,0.022 -1.0889,0.01 -1.7271,0 -0.2018,0.018 -0.4175,0.2762 -0.5756,0.2878 -0.1355,0.01 -0.6767,-0.014 -0.8636,0 -0.1936,0.01 -0.3821,-0.01 -0.5756,0 -31.3141,1.1742 -58.8676,16.1122 -79.7318,38.2828 l 41.1612,40.8733 c 13.2909,-13.0133 31.4674,-21.0124 51.5234,-21.0124 20.1924,0 38.4971,8.1302 51.8112,21.3002 l 41.1611,-41.1611 c -23.9433,-24.1091 -56.4848,-39.4333 -92.1088,-38.8584 z"
         inkscape:connector-curvature="0"
         style="opacity:0.9;fill:#f57900" />
      <path
         id="8-4-5"
         d="m -2013.7836,-2444.0364 c -42.2235,45.3886 -56.2696,120.6293 -15.5433,171.265 1.0072,1.2792 2.0397,2.6351 2.8784,4.0297 3.149,4.5049 6.7042,8.7897 10.3622,12.665 l 43.1761,-43.176 c -13.1711,-13.3143 -21.3002,-31.6178 -21.3002,-51.8113 0,-20.1886 8.1347,-38.4977 21.3002,-51.8112 l -40.8734,-41.1612 z"
         inkscape:connector-curvature="0"
         style="opacity:0.9;fill:#8bb300" />
      <path
         id="9-1-5"
         d="m -1826.9753,-2444.0364 -41.1611,41.1612 c 13.1699,13.3142 21.3002,31.6187 21.3002,51.8112 0,20.1227 -8.2107,38.221 -21.3002,51.5234 l 42.6003,42.6004 c 13.2626,-12.8558 23.62,-28.6272 29.3597,-47.4936 0.3347,-1.0378 0.7307,-2.1605 1.1514,-3.1663 18.5706,-48.6123 2.3951,-101.4577 -31.9503,-136.4363 z"
         inkscape:connector-curvature="0"
         style="opacity:0.9;fill:#cc0000" />
      <path
         id="A-5-3"
         d="m -1902.0348,-2351.2213 a 18.42175,18.421794 0 0 1 -36.8435,0 18.42175,18.421794 0 1 1 36.8435,0 z"
         inkscape:connector-curvature="0"
         style="fill:#555753" />
      <path
         style="fill:#555753"
         d="m -1852.4287,-2445.3874 0.01,0.01 c 5.9034,4.1841 7.2139,12.409 2.9383,18.4415 l -54.801,77.3198 c -4.2755,6.0325 -12.4702,7.5205 -18.3736,3.3364 l -0.01,-0.01 c -5.9034,-4.1841 -7.2139,-12.409 -2.9383,-18.4415 l 54.801,-77.3198 c 4.2755,-6.0325 12.4702,-7.5205 18.3736,-3.3364 z"
         id="B-8-7"
         inkscape:connector-curvature="0" />
      <path
         style="opacity:0.6;fill:url(#P-2-2)"
         id="C-4-2"
         d="m -1919.6598,-2483.7583 c -2.8167,0.046 -5.7838,0.3263 -8.6352,0.5757 -0.5923,0.052 -0.983,-0.039 -1.4392,0 -0.638,0.022 -1.0889,0.01 -1.7271,0 -0.2018,0.018 -0.4175,0.2762 -0.5756,0.2878 -0.1355,0.01 -0.6767,-0.014 -0.8636,0 -0.1936,0.01 -0.3821,-0.01 -0.5756,0 -70.7043,2.6513 -122.7032,75.3799 -120.0294,143.6323 81.8138,-26.5405 171.9953,-51.6478 251.8601,-69.6573 -22.1274,-43.3502 -66.86,-75.6737 -118.0144,-74.8385 z"
         inkscape:connector-curvature="0" />
    </g>
  </g>
</svg>
